<?xml version="1.0" encoding="UTF-8" standalone="no"?>
<svg width="16px" height="16px" viewBox="0 0 16 16" version="1.1" xmlns="http://www.w3.org/2000/svg" xmlns:xlink="http://www.w3.org/1999/xlink">
    <!-- Generator: Sketch 40.3 (33839) - http://www.bohemiancoding.com/sketch -->
    <title>non-compliant-inprogress-icon</title>
    <desc>Created with Sketch.</desc>
    <defs></defs>
    <g id="icons" stroke="none" stroke-width="1" fill="none" fill-rule="evenodd">
        <g id="Response-Icons" transform="translate(-206.000000, -256.000000)" fill="#f39200">
            <g id="non-compliant-inprogress-icon" transform="translate(206.000000, 256.000000)">
                <path d="M8,0 C3.57333333,0 0,3.57333333 0,8 C0,12.4266667 3.57333333,16 8,16 C12.4266667,16 16,12.4266667 16,8 C16,3.57333333 12.4266667,0 8,0 L8,0 Z M8.001291,7.30378278 L10.5180141,5.19200138 C10.7383399,5.00712605 11.080413,5.03179971 11.2697473,5.25743953 C11.4535444,5.47648036 11.4294907,5.81961612 11.2036542,6.00911545 L8.83101037,8 L11.2036542,9.99088455 C11.4294907,10.1803839 11.4535444,10.5235196 11.2697473,10.7425605 C11.080413,10.9682003 10.7383399,10.9928739 10.5180141,10.8079986 L8.001291,8.69621722 L5.48456792,10.8079986 C5.26424209,10.9928739 4.922169,10.9682003 4.73283471,10.7425605 C4.54903762,10.5235196 4.57309131,10.1803839 4.79892781,9.99088455 L7.17157162,8 L4.79892781,6.00911545 C4.57309131,5.81961612 4.54903762,5.47648036 4.73283471,5.25743953 C4.922169,5.03179971 5.26424209,5.00712605 5.48456792,5.19200138 L8.001291,7.30378278 Z"></path>
            </g>
        </g>
    </g>
</svg>